<svg xmlns="http://www.w3.org/2000/svg" viewBox="0 0 1600 900" preserveAspectRatio="xMidYMid slice">
  <defs>
    <linearGradient id="sky" x1="0" y1="0" x2="0" y2="1">
      <stop offset="0" stop-color="#1b6aa3"/>
      <stop offset=".55" stop-color="#57b8ff"/>
      <stop offset="1" stop-color="#cbe8ff"/>
    </linearGradient>
    <radialGradient id="sun" cx="1180" cy="330" r="360" gradientUnits="userSpaceOnUse">
      <stop offset="0" stop-color="#fbb13c" stop-opacity=".95"/>
      <stop offset=".18" stop-color="#fbb13c" stop-opacity=".55"/>
      <stop offset="1" stop-color="#fbb13c" stop-opacity="0"/>
    </radialGradient>
    <linearGradient id="far" x1="0" y1="0" x2="0" y2="1">
      <stop offset="0" stop-color="#3f97d1"/>
      <stop offset="1" stop-color="#2176ae"/>
    </linearGradient>
    <linearGradient id="mid" x1="0" y1="0" x2="0" y2="1">
      <stop offset="0" stop-color="#2a7fb8"/>
      <stop offset="1" stop-color="#1b5f8c"/>
    </linearGradient>
    <linearGradient id="near" x1="0" y1="0" x2="0" y2="1">
      <stop offset="0" stop-color="#1a5a86"/>
      <stop offset="1" stop-color="#15344b"/>
    </linearGradient>
    <linearGradient id="sea" x1="0" y1="0" x2="0" y2="1">
      <stop offset="0" stop-color="#57b8ff" stop-opacity=".55"/>
      <stop offset="1" stop-color="#2176ae" stop-opacity=".2"/>
    </linearGradient>
  </defs>
  <rect width="1600" height="900" fill="url(#sky)"/>
  <rect width="1600" height="900" fill="url(#sun)"/>
  <circle cx="1180" cy="330" r="58" fill="#fde9c4"/>
  <g fill="#ffffff" opacity=".55">
    <ellipse cx="300" cy="230" rx="120" ry="16"/>
    <ellipse cx="360" cy="215" rx="70" ry="14"/>
    <ellipse cx="820" cy="170" rx="150" ry="14"/>
    <ellipse cx="880" cy="158" rx="80" ry="12"/>
    <ellipse cx="1420" cy="250" rx="110" ry="13"/>
  </g>
  <path fill="url(#far)" d="M0 560 C120 520 200 470 320 480 C440 490 500 430 640 440 C760 450 820 400 940 410 C1060 420 1120 360 1240 380 C1360 400 1440 450 1600 430 L1600 900 L0 900 Z"/>
  <path fill="url(#mid)" d="M0 640 C140 600 220 560 360 580 C500 600 580 540 720 560 C860 580 920 520 1060 540 C1200 560 1300 600 1420 580 C1500 570 1560 560 1600 570 L1600 900 L0 900 Z"/>
  <path fill="url(#sea)" d="M0 700 L1600 700 L1600 900 L0 900 Z"/>
  <path fill="url(#near)" d="M0 760 C160 740 260 700 420 720 C580 740 660 700 820 710 C980 720 1080 690 1240 700 C1400 710 1500 740 1600 730 L1600 900 L0 900 Z"/>
</svg>
